<?xml version="1.0" encoding="UTF-8"?>
<svg width="356px" height="300px" viewBox="0 0 356 300" version="1.1" xmlns="http://www.w3.org/2000/svg" xmlns:xlink="http://www.w3.org/1999/xlink">
    <title>logo-los-dos-white</title>
    <g id="logo-los-dos-white" stroke="none" stroke-width="1" fill="none" fill-rule="evenodd">
        <path d="M311.752836,118.559155 C311.752836,142.527887 306.851705,166.262535 297.047753,189.823099 C287.244646,213.383662 273.823192,233.852958 256.725045,251.172676 C224.571734,283.538873 192.418423,299.693239 160.265112,299.693239 C129.279582,299.693239 101.853207,283.538873 77.8692922,251.172676 C55.9858622,221.314648 45.0741663,190.231268 45.0741663,157.86507 C45.0741663,127.598873 59.1957815,97.8566197 87.4973587,68.6974648 C105.003933,50.4447887 125.427848,34.9901408 148.653254,22.2185915 C175.321121,7.40619718 199.595924,0 221.479354,0 C249.314157,0 271.839401,13.3546479 289.17009,40.0056338 C304.225254,62.9822535 311.752836,89.1667606 311.752836,118.559155 Z M218.736209,47.82 C201.463867,47.82 181.390033,54.06 158.573055,66.5983099 C135.815268,79.1366197 116.73333,94.415493 101.503126,112.435775 C84.6383658,132.205352 76.1772352,151.158592 76.1772352,169.120563 C76.1772352,190.581127 84.8134062,212.1 102.144941,233.736338 C120.642565,256.538028 140.366318,267.910141 161.3162,267.910141 C191.834955,267.910141 222.529596,248.432113 253.282584,209.476056 C261.276941,199.211831 267.812627,186.498592 272.94799,171.336338 C278.083354,156.232394 280.650613,142.003099 280.650613,128.82338 C280.650613,107.828451 275.631943,89.7507042 265.595449,74.4709859 C254.216133,56.6847887 238.576656,47.82 218.736209,47.82 L218.736209,47.82 Z" id="Fill-1" fill="#DB784D"></path>
        <path d="M38.8860238,177.141127 C38.8860238,178.658028 38.3203135,179.402535 37.1888931,179.402535 C36.4439145,179.402535 35.2431544,179.292676 33.6009881,179.085634 C31.9452922,178.86507 30.7030974,178.754366 29.8338147,178.754366 C23.7479905,178.754366 17.6494822,179.940845 11.563658,182.312958 C10.7493397,182.69831 9.94939667,183.098873 9.13507838,183.526479 C7.94869359,184.009014 7.1343753,184.25662 6.70649881,184.25662 C5.52011401,184.25662 4.52652732,183.374366 3.71220903,181.595493 C3.06362945,180.078592 2.74652732,178.658028 2.74652732,177.306761 C2.74652732,156.083662 2.09794774,139.052113 0.81431829,126.24169 C0.276513064,120.794366 0,118.243099 0,118.56 C0,116.671268 1.04939667,115.733239 3.13296912,115.733239 C4.62292637,115.733239 5.96152019,116.146479 7.1343753,116.988169 C8.3072304,117.815493 8.90084561,118.959718 8.90084561,120.42169 C8.90084561,120.739437 8.90084561,121.194085 8.90084561,121.787324 C8.90084561,122.380563 8.90084561,122.82169 8.90084561,123.083662 C8.90084561,124.103662 8.95580998,125.45493 9.06658432,127.123944 C9.17651306,129.234085 9.24585273,130.543944 9.3008171,131.081408 C9.46655582,140.459155 9.86652732,154.497465 10.5151069,173.183662 C16.0073159,171.832394 21.568019,171.156338 27.1701568,171.156338 C30.3445606,171.156338 32.456038,171.211268 33.4766841,171.321972 C36.2232114,171.749577 37.8924371,172.714648 38.4860523,174.231549 C38.7617197,174.990423 38.8860238,175.955493 38.8860238,177.141127 Z M107.618546,143.851268 C107.618546,149.519155 106.460067,155.132113 104.141416,160.702817 C101.82361,166.274366 98.6492067,171.11493 94.6063658,175.210986 C87.0026793,182.863944 79.3998385,186.683662 71.796152,186.683662 C64.4698242,186.683662 57.9840285,182.863944 52.3125511,175.210986 C47.1374442,168.150423 44.5575012,160.8 44.5575012,153.146197 C44.5575012,145.989296 47.8967981,138.955775 54.5889216,132.060845 C58.7290071,127.744225 63.5582613,124.090141 69.0504703,121.069859 C75.3569976,117.567042 81.0969691,115.816056 86.272076,115.816056 C92.8542708,115.816056 98.1798955,118.974085 102.278546,125.275775 C105.838546,130.709577 107.618546,136.901408 107.618546,143.851268 Z M85.6234964,127.123944 C81.5383753,127.123944 76.7919905,128.599437 71.3961805,131.564789 C66.0147458,134.529296 61.5025938,138.141972 57.9011591,142.403662 C53.9132827,147.078592 51.9125796,151.56 51.9125796,155.807324 C51.9125796,160.882817 53.9547173,165.970986 58.0525226,171.087042 C62.4268409,176.479437 67.0912019,179.168451 72.0447601,179.168451 C79.2620048,179.168451 86.5198385,174.562817 93.7920475,165.350704 C95.6828219,162.923662 97.2285891,159.916901 98.4428789,156.332113 C99.6571686,152.76 100.264314,149.39493 100.264314,146.27831 C100.264314,141.314366 99.0770831,137.039155 96.7034679,133.426479 C94.0127506,129.219718 90.3149169,127.123944 85.6234964,127.123944 Z M119.182204,187.167042 C117.457169,187.167042 116.587886,186.65662 116.587886,185.635775 C116.587886,184.932676 116.960798,184.063944 117.719306,183.043099 C134.0581,176.851268 142.226651,171.032113 142.226651,165.599155 C142.226651,162.895775 140.129549,159.90338 135.920124,156.621127 C131.988057,153.711549 128.068675,150.774085 124.191572,147.809577 C119.982993,144.210423 117.885045,140.734648 117.885045,137.397465 C117.885045,133.619155 120.424399,129.578873 125.488732,125.275775 C128.993767,122.311268 133.215876,119.566479 138.18381,117.029577 C140.335876,115.898873 142.213121,115.333521 143.840912,115.333521 C145.028143,115.333521 146.131658,115.636901 147.15315,116.257183 C148.173796,116.877465 148.684542,117.760563 148.684542,118.891268 C148.684542,119.594366 148.505273,120.283944 148.118831,120.987042 C147.63599,121.855775 146.365891,122.656056 144.323753,123.414085 C141.247439,124.544789 138.335173,126.24169 135.589492,128.503099 C132.194385,131.247042 130.497254,133.922535 130.497254,136.500845 C130.497254,139.038592 132.305159,141.948169 135.920124,145.230423 C139.260266,148.08507 142.599563,150.939718 145.93886,153.794366 C149.553824,157.352113 151.361729,160.689296 151.361729,163.819437 C151.361729,170.273239 143.53734,177.334648 127.902936,184.987606 C124.950081,186.436056 122.03866,187.167042 119.182204,187.167042 Z M241.579401,133.274366 C241.579401,140.33493 237.398727,148.761127 229.050062,158.565634 C221.722888,167.184507 211.511354,175.265915 198.416304,182.809014 C197.174109,183.512113 196.304827,183.856901 195.821986,183.856901 C192.592618,183.856901 190.950451,181.457746 190.895487,176.658592 C190.950451,170.301127 190.812618,160.744225 190.481986,147.975211 C190.109074,142.80338 189.654138,137.894366 189.115487,133.232958 C188.577682,128.572394 188.301169,126.379437 188.301169,126.641408 C188.301169,124.972394 189.32266,124.14507 191.378328,124.14507 C191.916979,124.14507 192.399819,124.186479 192.827696,124.297183 C204.791325,120.587324 214.492114,118.725634 221.930062,118.725634 C227.104323,118.725634 231.506546,119.829296 235.107981,122.03493 C239.426489,124.68338 241.579401,128.420282 241.579401,133.274366 Z M222.592171,128.186197 C216.934223,128.186197 208.931411,129.688732 198.582043,132.709014 C198.788371,136.046197 198.885615,139.411268 198.885615,142.80338 C198.885615,145.064789 198.774841,148.471268 198.567667,153.021972 C198.36134,157.587042 198.250565,160.992676 198.250565,163.254085 C198.250565,166.426479 198.36134,169.445915 198.567667,172.300563 C204.612057,170.246197 211.097853,166.13662 218.052114,159.931268 C228.456447,150.732676 233.658613,142.996901 233.658613,136.749296 C233.658613,133.784789 232.500133,131.550423 230.181482,130.047042 C228.250119,128.806479 225.710765,128.186197 222.592171,128.186197 Z M311.527059,143.851268 C311.527059,149.519155 310.367734,155.132113 308.049083,160.702817 C305.731278,166.274366 302.556874,171.11493 298.514033,175.210986 C290.911192,182.863944 283.307506,186.683662 275.704665,186.683662 C268.377492,186.683662 261.891696,182.863944 256.220219,175.210986 C251.045957,168.150423 248.465169,160.8 248.465169,153.146197 C248.465169,145.989296 251.804466,138.955775 258.497435,132.060845 C262.636675,127.744225 267.466774,124.090141 272.958138,121.069859 C279.264665,117.567042 285.004637,115.816056 290.179743,115.816056 C296.761938,115.816056 302.088409,118.974085 306.186214,125.275775 C309.746214,130.709577 311.527059,136.901408 311.527059,143.851268 Z M289.531164,127.123944 C285.446888,127.123944 280.699658,128.599437 275.304694,131.564789 C269.922413,134.529296 265.410261,138.141972 261.808827,142.403662 C257.82095,147.078592 255.820247,151.56 255.820247,155.807324 C255.820247,160.882817 257.862385,165.970986 261.96019,171.087042 C266.334508,176.479437 270.998869,179.168451 275.952428,179.168451 C283.169672,179.168451 290.427506,174.562817 297.700561,165.350704 C299.590489,162.923662 301.136257,159.916901 302.350546,156.332113 C303.564836,152.76 304.171981,149.39493 304.171981,146.27831 C304.171981,141.314366 302.984751,137.039155 300.611135,133.426479 C297.921264,129.219718 294.222584,127.123944 289.531164,127.123944 Z M323.089872,187.167042 C321.364836,187.167042 320.496399,186.65662 320.496399,185.635775 C320.496399,184.932676 320.868466,184.063944 321.627819,183.043099 C337.965767,176.851268 346.134318,171.032113 346.134318,165.599155 C346.134318,162.895775 344.037216,159.90338 339.828637,156.621127 C335.895724,153.711549 331.976342,150.774085 328.09924,147.809577 C323.89066,144.210423 321.792713,140.734648 321.792713,137.397465 C321.792713,133.619155 324.332067,129.578873 329.396399,125.275775 C332.901435,122.311268 337.123544,119.566479 342.091477,117.029577 C344.24439,115.898873 346.120789,115.333521 347.74858,115.333521 C348.93581,115.333521 350.039325,115.636901 351.060817,116.257183 C352.082309,116.877465 352.592209,117.760563 352.592209,118.891268 C352.592209,119.594366 352.412941,120.283944 352.026499,120.987042 C351.543658,121.855775 350.274404,122.656056 348.232266,123.414085 C345.155107,124.544789 342.242841,126.24169 339.497159,128.503099 C336.102898,131.247042 334.404922,133.922535 334.404922,136.500845 C334.404922,139.038592 336.212827,141.948169 339.828637,145.230423 C343.167933,148.08507 346.50723,150.939718 349.846527,153.794366 C353.461492,157.352113 355.269397,160.689296 355.269397,163.819437 C355.269397,170.273239 347.445853,177.334648 331.811449,184.987606 C328.858594,186.436056 325.946328,187.167042 323.089872,187.167042 L323.089872,187.167042 Z" id="Fill-2" fill="#FFFFFF"></path>
        <path d="M97.0315629,204.691268 L100.012323,204.691268 L100.012323,194.540282 L100.052912,194.540282 L103.600228,204.691268 L106.054176,204.691268 L109.602337,194.438873 L109.642081,194.438873 L109.642081,204.691268 L112.622841,204.691268 L112.622841,190.224507 L108.141976,190.224507 L104.938822,200.173521 L104.898233,200.173521 L101.512428,190.224507 L97.0315629,190.224507 L97.0315629,204.691268 Z M125.050708,200.153239 C125.050708,200.099155 125.050708,200.011268 125.050708,199.889577 C125.065083,199.781408 125.071002,199.700282 125.071002,199.646197 C125.071002,198.876338 124.960228,198.147042 124.736988,197.45831 C124.513748,196.769577 124.189036,196.161127 123.763696,195.634648 C123.337511,195.107324 122.803933,194.692394 122.162119,194.389014 C121.520304,194.084789 120.787164,193.932676 119.961853,193.932676 C119.177976,193.932676 118.454983,194.071268 117.792874,194.347606 C117.130765,194.624789 116.562518,195.013521 116.089824,195.512958 C115.616285,196.012394 115.251829,196.600563 114.994765,197.275775 C114.738546,197.950986 114.610014,198.680282 114.610014,199.464507 C114.610014,200.261408 114.735164,201.000845 114.984618,201.682817 C115.234917,202.364789 115.592608,202.952113 116.059382,203.445634 C116.525311,203.93831 117.090176,204.316901 117.752285,204.580563 C118.414394,204.84338 119.150917,204.975211 119.961853,204.975211 C121.178679,204.975211 122.202708,204.687887 123.033938,204.114085 C123.865169,203.540282 124.476542,202.652113 124.868903,201.449577 L122.334622,201.449577 C122.239914,201.801127 121.976086,202.114648 121.543135,202.391831 C121.111031,202.669014 120.618043,202.807606 120.063325,202.807606 C119.25239,202.807606 118.630869,202.591268 118.197919,202.158592 C117.765815,201.726761 117.529045,201.057465 117.488456,200.153239 L125.050708,200.153239 Z M117.488456,198.329577 C117.501986,198.099718 117.54934,197.859718 117.630518,197.610423 C117.711696,197.360282 117.846993,197.120282 118.036409,196.891268 C118.224979,196.661408 118.471895,196.472113 118.776314,196.32338 C119.079886,196.174648 119.44857,196.100282 119.880675,196.100282 C120.557159,196.100282 121.073824,196.282817 121.432361,196.647887 C121.790052,197.012113 122.036969,197.573239 122.172266,198.329577 L117.488456,198.329577 Z M125.659544,204.691268 L128.882993,204.691268 L131.073112,201.388732 L133.262385,204.691268 L136.546717,204.691268 L132.674689,199.119718 L136.121378,194.21662 L132.937672,194.21662 L131.112855,196.951268 L129.268589,194.21662 L125.983411,194.21662 L129.4301,199.180563 L125.659544,204.691268 Z M137.722955,204.691268 L140.602242,204.691268 L140.602242,194.215775 L137.722955,194.215775 L137.722955,204.691268 Z M137.722955,192.595775 L140.602242,192.595775 L140.602242,190.225352 L137.722955,190.225352 L137.722955,192.595775 Z M152.827164,197.903662 C152.745986,196.634366 152.236086,195.65493 151.296618,194.966197 C150.35715,194.27662 149.224884,193.932676 147.900665,193.932676 C147.06267,193.932676 146.30839,194.071268 145.639515,194.347606 C144.970641,194.624789 144.406622,195.020282 143.946613,195.533239 C143.487449,196.046197 143.139059,196.651268 142.90229,197.346761 C142.666366,198.042254 142.547981,198.795211 142.547981,199.605634 C142.547981,200.389014 142.673131,201.109014 142.922584,201.763944 C143.172884,202.418873 143.534803,202.985915 144.007496,203.465915 C144.481036,203.94507 145.045055,204.316901 145.700399,204.580563 C146.356589,204.84338 147.069435,204.975211 147.839781,204.975211 C149.231648,204.975211 150.377444,204.60338 151.276323,203.860563 C152.175202,203.117746 152.712162,202.057183 152.888048,200.679718 L150.110233,200.679718 C150.015525,201.341408 149.772836,201.861972 149.380475,202.239718 C148.988114,202.61831 148.468067,202.807606 147.819487,202.807606 C147.386537,202.807606 147.015316,202.709577 146.704133,202.513521 C146.39295,202.317465 146.146879,202.060563 145.964228,201.743662 C145.781577,201.425915 145.64628,201.075211 145.558337,200.689859 C145.470394,200.305352 145.427268,199.909859 145.427268,199.504225 C145.427268,199.099437 145.470394,198.697183 145.558337,198.299155 C145.64628,197.900282 145.78496,197.536056 145.974375,197.204789 C146.163791,196.873521 146.420855,196.607324 146.744722,196.404507 C147.069435,196.20169 147.44742,196.100282 147.880371,196.100282 C149.109881,196.100282 149.819344,196.701972 150.00876,197.903662 L152.827164,197.903662 Z M161.037995,200.639155 C161.037995,200.869014 161.018546,201.109014 160.977112,201.35831 C160.936523,201.608451 160.84266,201.865352 160.693834,202.128169 C160.545007,202.391831 160.308238,202.611549 159.984371,202.787324 C159.659658,202.962254 159.233473,203.050141 158.70666,203.050141 C158.166318,203.050141 157.736751,202.952113 157.419648,202.756901 C157.101701,202.560845 156.942727,202.212676 156.942727,201.713239 C156.942727,201.24 157.091553,200.892676 157.389207,200.669577 C157.686014,200.446479 158.105435,200.280845 158.645777,200.173521 C158.821663,200.146479 159.051667,200.112676 159.334945,200.072113 C159.781425,200.004507 160.135734,199.936901 160.399563,199.869296 C160.663392,199.80169 160.876485,199.700282 161.037995,199.56507 L161.037995,200.639155 Z M157.267439,197.438028 C157.321558,196.883662 157.510974,196.482254 157.834841,196.232113 C158.159553,195.981972 158.605188,195.857746 159.173435,195.857746 C159.767895,195.857746 160.227059,195.952394 160.551772,196.140845 C160.876485,196.330141 161.037995,196.708732 161.037995,197.275775 C161.037995,197.708451 160.84266,197.99831 160.450299,198.147042 C160.058784,198.295775 159.429653,198.424225 158.564599,198.532394 C158.213672,198.572958 157.902489,198.612676 157.631895,198.653239 C157.118613,198.720845 156.658603,198.815493 156.253558,198.937183 C155.847667,199.058873 155.479829,199.234648 155.148352,199.464507 C154.81772,199.693521 154.553891,200.004507 154.35771,200.395775 C154.16153,200.787887 154.064285,201.267042 154.064285,201.83493 C154.064285,202.860845 154.394917,203.64169 155.057026,204.17493 C155.719981,204.708169 156.578271,204.975211 157.631895,204.975211 C158.32191,204.975211 158.973872,204.870423 159.588627,204.660845 C160.203382,204.452113 160.727658,204.124225 161.159762,203.678873 C161.173292,203.975493 161.240941,204.313521 161.362708,204.691268 L164.281739,204.691268 C164.160817,204.489296 164.069492,204.18169 164.008608,203.769296 C163.947724,203.357746 163.917283,202.887887 163.917283,202.361408 L163.917283,196.910704 C163.917283,196.31662 163.781986,195.820563 163.511392,195.42169 C163.241644,195.023662 162.886489,194.716056 162.44762,194.499718 C162.007905,194.284225 161.521682,194.135493 160.987259,194.054366 C160.453682,193.973239 159.896428,193.932676 159.315496,193.932676 C158.693131,193.932676 158.102052,193.990141 157.541416,194.10507 C156.979933,194.22 156.466651,194.415211 155.999876,194.692394 C155.533948,194.969577 155.158499,195.333803 154.875221,195.786761 C154.591097,196.238873 154.428741,196.789859 154.388152,197.438028 L157.267439,197.438028 Z M166.147145,204.691268 L169.026432,204.691268 L169.026432,199.200845 C169.026432,198.133521 169.202318,197.367042 169.553245,196.901408 C169.905017,196.43493 170.472418,196.20169 171.256295,196.20169 C171.919249,196.20169 172.391943,196.411268 172.676067,196.830423 C172.959344,197.248732 173.101406,197.896901 173.101406,198.77493 L173.101406,204.691268 L175.980694,204.691268 L175.980694,198.248451 C175.980694,197.559718 175.923192,196.954648 175.80819,196.43493 C175.693188,195.914366 175.491088,195.469014 175.2002,195.098028 C174.909311,194.726197 174.514413,194.438873 174.013815,194.236901 C173.514062,194.034085 172.892542,193.932676 172.148409,193.932676 C171.513359,193.932676 170.908751,194.081408 170.334584,194.378028 C169.759572,194.675493 169.297026,195.107324 168.945254,195.675211 L168.884371,195.675211 L168.884371,194.21662 L166.147145,194.21662 L166.147145,204.691268 Z M196.843477,195.087887 C196.74877,194.263944 196.522147,193.527042 196.164456,192.878873 C195.805919,192.230704 195.34591,191.683944 194.785273,191.237746 C194.224637,190.792394 193.586204,190.454366 192.869131,190.224507 C192.152903,189.995493 191.396086,189.880563 190.598679,189.880563 C189.50362,189.880563 188.513416,190.072394 187.628067,190.457746 C186.743563,190.843099 185.992665,191.383099 185.37791,192.078592 C184.763154,192.774085 184.292998,193.587887 183.969131,194.52 C183.644418,195.452113 183.482062,196.451831 183.482062,197.519155 C183.482062,198.559437 183.644418,199.538028 183.969131,200.45662 C184.292998,201.375211 184.763154,202.175493 185.37791,202.857465 C185.992665,203.540282 186.743563,204.073521 187.628067,204.458873 C188.513416,204.84338 189.50362,205.036056 190.598679,205.036056 C191.477264,205.036056 192.2882,204.897465 193.031487,204.620282 C193.774774,204.343944 194.427582,203.94507 194.988219,203.425352 C195.548855,202.905634 195.998717,202.280282 196.336114,201.550986 C196.674356,200.82169 196.884067,200.011268 196.965245,199.119718 L193.883012,199.119718 C193.761245,200.105915 193.420466,200.892676 192.858983,201.48 C192.298347,202.068169 191.544912,202.361408 190.598679,202.361408 C189.909511,202.361408 189.31505,202.229577 188.814451,201.966761 C188.314698,201.703099 187.905425,201.341408 187.587477,200.882535 C187.270375,200.422817 187.036988,199.906479 186.888162,199.332676 C186.740181,198.758028 186.665767,198.153803 186.665767,197.519155 C186.665767,196.857465 186.740181,196.228732 186.888162,195.634648 C187.036988,195.040563 187.266993,194.513239 187.578176,194.054366 C187.888513,193.594648 188.297786,193.230423 188.804304,192.96 C189.311667,192.689577 189.909511,192.555211 190.598679,192.555211 C191.396086,192.555211 192.098784,192.797746 192.706774,193.284507 C193.31561,193.770423 193.666537,194.371268 193.761245,195.087887 L196.843477,195.087887 Z M208.663354,194.21662 L205.784067,194.21662 L205.784067,199.707042 C205.784067,200.774366 205.608181,201.540845 205.257254,202.007324 C204.905482,202.472958 204.338081,202.706197 203.554204,202.706197 C202.905625,202.706197 202.435468,202.49662 202.145425,202.077465 C201.854537,201.659155 201.709093,201.010986 201.709093,200.132958 L201.709093,194.21662 L198.829805,194.21662 L198.829805,200.659437 C198.829805,201.348169 198.887306,201.949859 199.002309,202.462817 C199.117311,202.975775 199.320257,203.421972 199.610299,203.799718 C199.901188,204.17831 200.296931,204.469014 200.796684,204.670986 C201.296437,204.873803 201.918803,204.975211 202.66209,204.975211 C203.29714,204.975211 203.901748,204.826479 204.47676,204.529014 C205.050926,204.232394 205.514318,203.799718 205.865245,203.232676 L205.926128,203.232676 L205.926128,204.691268 L208.663354,204.691268 L208.663354,194.21662 Z M210.933805,204.691268 L213.813093,204.691268 L213.813093,194.215775 L210.933805,194.215775 L210.933805,204.691268 Z M210.933805,192.595775 L213.813093,192.595775 L213.813093,190.225352 L210.933805,190.225352 L210.933805,192.595775 Z M215.577026,201.287324 C215.604086,201.949859 215.755449,202.520282 216.032808,202.999437 C216.310166,203.479437 216.67885,203.863944 217.138014,204.154648 C217.597178,204.445352 218.111306,204.654085 218.678708,204.782535 C219.246109,204.910986 219.854945,204.975211 220.503525,204.975211 C221.138575,204.975211 221.736418,204.910986 222.2979,204.782535 C222.858537,204.654085 223.3659,204.448732 223.818299,204.164789 C224.271544,203.880845 224.629235,203.503099 224.893064,203.029859 C225.156048,202.557465 225.287962,201.989577 225.287962,201.327887 C225.287962,200.869014 225.200865,200.470141 225.024979,200.132958 C224.849093,199.79493 224.605558,199.517746 224.295221,199.302254 C223.984038,199.085915 223.639031,198.906761 223.261045,198.764789 C222.882214,198.622817 222.450109,198.498592 221.96304,198.390423 C221.814214,198.349859 221.55123,198.289014 221.172399,198.207887 C220.334404,198.032113 219.712884,197.856338 219.306993,197.680563 C218.901948,197.505634 218.699002,197.22169 218.699002,196.830423 C218.699002,196.451831 218.854594,196.19493 219.164931,196.060563 C219.476114,195.925352 219.854945,195.857746 220.30058,195.857746 C220.881511,195.857746 221.344903,195.962535 221.68991,196.171268 C222.034071,196.380845 222.226869,196.748451 222.267458,197.275775 L225.004684,197.275775 C224.950565,196.654648 224.791591,196.127324 224.527762,195.695493 C224.264779,195.262817 223.919772,194.918873 223.494432,194.661972 C223.068247,194.40507 222.595553,194.22 222.07466,194.10507 C221.554613,193.990141 220.990594,193.932676 220.381758,193.932676 C219.773767,193.932676 219.202138,193.986761 218.668561,194.09493 C218.134983,194.203099 217.651297,194.381408 217.219192,194.631549 C216.786242,194.88169 216.445463,195.229014 216.195164,195.675211 C215.944865,196.120563 215.819715,196.661408 215.819715,197.296056 C215.819715,197.741408 215.91104,198.12338 216.093691,198.441127 C216.276342,198.758028 216.523259,199.02169 216.833596,199.231268 C217.144779,199.440845 217.486404,199.609014 217.857625,199.737465 C218.229691,199.865915 218.658413,199.984225 219.145482,200.092394 C220.347933,200.348451 221.192694,200.58169 221.678917,200.791268 C222.165986,201.000845 222.40952,201.307606 222.40952,201.713239 C222.40952,202.172113 222.220105,202.510141 221.841273,202.725634 C221.463287,202.941972 221.023572,203.050141 220.523819,203.050141 C219.902299,203.050141 219.381406,202.905634 218.962831,202.61493 C218.543411,202.324225 218.326936,201.882254 218.314252,201.287324 L215.577026,201.287324 Z M227.051895,204.691268 L229.931183,204.691268 L229.931183,194.215775 L227.051895,194.215775 L227.051895,204.691268 Z M227.051895,192.595775 L229.931183,192.595775 L229.931183,190.225352 L227.051895,190.225352 L227.051895,192.595775 Z M232.201634,204.691268 L235.080922,204.691268 L235.080922,199.200845 C235.080922,198.133521 235.255962,197.367042 235.607734,196.901408 C235.959506,196.43493 236.526907,196.20169 237.310784,196.20169 C237.972893,196.20169 238.446432,196.411268 238.72971,196.830423 C239.013834,197.248732 239.155895,197.896901 239.155895,198.77493 L239.155895,204.691268 L242.035183,204.691268 L242.035183,198.248451 C242.035183,197.559718 241.977682,196.954648 241.862679,196.43493 C241.747677,195.914366 241.544732,195.469014 241.254689,195.098028 C240.9638,194.726197 240.568057,194.438873 240.068304,194.236901 C239.567705,194.034085 238.946185,193.932676 238.202898,193.932676 C237.567848,193.932676 236.962394,194.081408 236.388228,194.378028 C235.814062,194.675493 235.35067,195.107324 234.999743,195.675211 L234.93886,195.675211 L234.93886,194.21662 L232.201634,194.21662 L232.201634,204.691268 Z M254.158632,200.153239 C254.158632,200.099155 254.158632,200.011268 254.158632,199.889577 C254.173007,199.781408 254.179772,199.700282 254.179772,199.646197 C254.179772,198.876338 254.068152,198.147042 253.844912,197.45831 C253.621672,196.769577 253.29696,196.161127 252.87162,195.634648 C252.44628,195.107324 251.911857,194.692394 251.270043,194.389014 C250.628228,194.084789 249.895088,193.932676 249.069777,193.932676 C248.2859,193.932676 247.562907,194.071268 246.900798,194.347606 C246.238689,194.624789 245.670442,195.013521 245.197748,195.512958 C244.725055,196.012394 244.359753,196.600563 244.102689,197.275775 C243.84647,197.950986 243.717938,198.680282 243.717938,199.464507 C243.717938,200.261408 243.843088,201.000845 244.092542,201.682817 C244.342841,202.364789 244.701378,202.952113 245.167306,203.445634 C245.633235,203.93831 246.1981,204.316901 246.860209,204.580563 C247.522318,204.84338 248.258841,204.975211 249.069777,204.975211 C250.286603,204.975211 251.310632,204.687887 252.141862,204.114085 C252.973093,203.540282 253.584466,202.652113 253.976827,201.449577 L251.442546,201.449577 C251.347838,201.801127 251.08401,202.114648 250.651905,202.391831 C250.218955,202.669014 249.725967,202.807606 249.171249,202.807606 C248.360314,202.807606 247.738793,202.591268 247.305843,202.158592 C246.873739,201.726761 246.636969,201.057465 246.59638,200.153239 L254.158632,200.153239 Z M246.59638,198.329577 C246.60991,198.099718 246.657264,197.859718 246.738442,197.610423 C246.81962,197.360282 246.954917,197.120282 247.144333,196.891268 C247.333748,196.661408 247.579819,196.472113 247.884238,196.32338 C248.18781,196.174648 248.556494,196.100282 248.988599,196.100282 C249.665083,196.100282 250.181748,196.282817 250.540285,196.647887 C250.897976,197.012113 251.144893,197.573239 251.28019,198.329577 L246.59638,198.329577 L246.59638,198.329577 Z" id="Fill-3" fill="#DB784D"></path>
    </g>
</svg>